<?xml version="1.0" encoding="UTF-8"?>
<!-- Generator: Adobe Illustrator 16.0.0, SVG Export Plug-In . SVG Version: 6.00 Build 0)  -->
<svg id="Capa_1" width="151" height="125.1" version="1.1" viewBox="0 0 151 125.1" xml:space="preserve" xmlns="http://www.w3.org/2000/svg">
<g id="g12" transform="translate(-179.39 -298.62)">
	<g id="g10">
		
		
		
		
	<g id="g270" transform="translate(11.715)"><g id="g449" transform="matrix(.2371 0 0 .23251 179.39 298.62)" stroke-width="4.2591">
	<path id="path3801" d="m269.02 0c-148.33 0-269.02 120.68-269.02 269.02s120.69 269.02 269.02 269.02 269.02-120.68 269.02-269.02-120.69-269.02-269.02-269.02z" fill="#fff"/><path id="path447" d="m269.02 0c-148.33 0-269.02 120.68-269.02 269.02s120.69 269.02 269.02 269.02 269.02-120.68 269.02-269.02-120.69-269.02-269.02-269.02zm198.79 124.5h-11.502c-4.962 0-9.35 3.204-10.88 7.915l-24.654 75.876-64.482 28.337-75.828-55.084v-76.043l63.991-46.463c4.017-2.917 5.691-8.083 4.161-12.794l-3.647-11.227c49.834 16.214 92.59 47.97 122.84 89.483zm-274.72-89.494-3.647 11.227c-1.53 4.723 0.143 9.876 4.161 12.794l63.979 46.463v76.043l-75.828 55.084-64.494-28.349-24.666-75.876c-1.53-4.735-5.93-7.915-10.88-7.915h-11.479c30.25-41.49 73.019-73.246 122.85-89.471zm-170.18 233.82 9.637 7.007c2.009 1.447 4.364 2.2 6.731 2.2 2.355 0 4.723-0.741 6.731-2.2l63.369-46.045 64.482 28.349 29.257 89.997-38.99 46.427h-79.558c-4.962 0-9.35 3.204-10.88 7.915l-3.551 10.916c-29.568-40.592-47.24-90.403-47.24-144.38 0-0.071 0.012-0.131 0.012-0.191zm169.98 234.13 9.529-6.959c4.017-2.894 5.703-8.083 4.173-12.781l-24.284-74.692 38.99-46.403h95.437l38.954 46.403-24.272 74.704c-1.53 4.723 0.167 9.876 4.185 12.794l9.529 6.935c-23.985 7.808-49.536 12.196-76.103 12.196-26.59-2e-3 -52.141-4.366-76.138-12.197zm275-89.531-3.551-10.952c-1.542-4.723-5.942-7.903-10.892-7.903l-79.547 0.012-38.954-46.415 29.234-90.008 64.505-28.337 63.358 46.009c2.009 1.47 4.364 2.212 6.732 2.212 2.367 0 4.735-0.741 6.732-2.212l9.637-6.994c0 0.06 0.012 0.12 0.012 0.191-0.014 53.958-17.709 103.77-47.266 144.4z"/>
</g></g></g>
</g>















</svg>
