<?xml version="1.0" encoding="UTF-8"?>
<!-- Generator: Adobe Illustrator 16.0.0, SVG Export Plug-In . SVG Version: 6.00 Build 0)  -->
<svg id="Capa_1" width="486.35" height="401.18" version="1.1" viewBox="0 0 486.35 401.18" xml:space="preserve" xmlns="http://www.w3.org/2000/svg">
<g id="g12" transform="translate(-.00044347 -42.582)">
	<g id="g10">
		
		
		
		
	<g id="g449" transform="matrix(.2371 0 0 .23251 179.39 298.62)" stroke-width="4.2591">
	<g id="g275" transform="matrix(1 0 0 -1 0 -476.98)" stroke-width="18.14"><path id="path1046" d="m-696.2 126.39c11.35-45.358 51.316-77.025 97.246-77.025 8.1063 0 16.217 1.015 24.138 3.015l166.25 42.106c18.836 4.6106 23.729-10.339 23.729-18.907v-1075c0-56.123 44.834-101.83 99.899-101.83h1108.7c55.095 0 99.954 45.706 99.954 101.83v1074.7c0 7.4363 2.0962 19.896 16.415 19.896 2.2269 0 4.766-0.34407 7.2502-0.98921l165.49-41.891c7.8913-1.9999 16.04-3.0192 24.154-3.0192 45.939 0 85.909 31.672 97.221 77.025l57.263 228.87c6.6048 26.412 2.7204 53.8-10.987 77.163-13.669 23.32-35.475 39.797-61.405 46.355l-524.94 132.9c-31.586 8.1933-64.159 12.382-96.998 12.382l-128.44 0.215-6.1325-25.87c-21.738-92.272-101.85-156.7-194.84-156.7-93.004 0-173.13 64.424-194.85 156.7l-6.1283 25.87h-120.49l-5.9174-0.2494c-32.56 0-65.108-4.1891-96.483-12.314l-524.93-132.93c-25.96-6.5589-47.74-23.036-61.447-46.355-13.674-23.328-17.588-50.751-10.962-77.163z" fill="#034694"/><path id="path2" d="m-696.2 126.39c11.35-45.358 51.316-77.025 97.246-77.025 8.1064 0 16.217 1.015 24.138 3.015l166.25 42.106c18.836 4.6106 23.729-10.339 23.729-18.907v-1075c0-56.123 44.834-101.83 99.899-101.83h1108.7c55.095 0 99.954 45.706 99.954 101.83v1074.7c0 7.4363 2.0962 19.896 16.415 19.896 2.2269 0 4.766-0.34407 7.2502-0.98921l165.49-41.891c7.8912-1.9999 16.04-3.0192 24.154-3.0192 45.939 0 85.909 31.672 97.221 77.025l57.263 228.87c6.6048 26.412 2.7204 53.8-10.987 77.163-13.669 23.32-35.475 39.797-61.405 46.355l-524.94 132.9c-31.586 8.1933-64.159 12.382-96.998 12.382l-128.44 0.215-6.1325-25.87c-21.738-92.272-101.85-156.7-194.84-156.7-93.004 0-173.13 64.424-194.85 156.7l-6.1282 25.87h-120.49l-5.9174-0.2494c-32.56 0-65.108-4.1891-96.483-12.314l-524.93-132.93c-25.96-6.5589-47.74-23.036-61.447-46.355-13.674-23.328-17.588-50.751-10.962-77.163zm10.527 271.32c4.572 7.7976 11.852 13.307 20.561 15.47l176.11 44.596 33.838-135.8 208.61 54.058-33.551 134.61 140.25 35.521c26.251 6.817 53.231 10.292 82.076 10.292l73.805 0.2495c36.93-108.73 137.01-182.57 251.81-182.57 114.81 0 214.88 73.838 251.76 182.57l77.968-0.2495c26.926 0 54.049-3.4751 80.502-10.348l525.11-132.93c8.6715-2.1978 15.938-7.7073 20.502-15.47 4.5973-7.7675 5.8837-16.911 3.6483-25.801l-57.263-228.87c-4.5298-18.141-23.34-29.793-41.219-25.165l-165.45 41.891c-7.7563 1.9655-15.58 2.9375-23.222 2.9375-47.141 0-82.637-37.573-82.637-87.408v-1074.8c0-18.92-15.141-34.3-33.699-34.3h-1108.8c-18.575 0-33.678 15.376-33.678 34.3v1075c0 49.839-35.555 87.412-82.708 87.412-7.6129 0-15.458-0.97201-23.197-2.9375l-166.25-42.106c-18.22-4.602-36.727 7.0234-41.291 25.165l-57.246 228.87c-2.2185 8.8513-0.9447 17.995 3.6356 25.763z"/><g id="text1286" transform="scale(.99027 -1.0098)" fill="#fff" aria-label="Away"><path id="path1329" d="m116.07 305.05h-42.857l-17.036-44.321h-77.995l-16.105 44.321h-41.792l75.998-195.12h41.659zm-72.538-77.196-26.886-72.405-26.353 72.405z"/><path id="path1331" d="m158.13 305.05-44.72-141.35h36.335l26.486 92.635 24.357-92.635h36.069l23.558 92.635 27.019-92.635h36.868l-45.386 141.35h-35.936l-24.357-90.905-23.957 90.905z"/><path id="path1333" d="m371.75 206.82-33.94-6.1224q5.7232-20.497 19.698-30.346t41.526-9.8492q25.022 0 37.267 5.9894 12.245 5.8562 17.169 15.04 5.0577 9.0506 5.0577 33.407l-0.39929 43.656q0 18.634 1.7302 27.551 1.8634 8.7844 6.7879 18.9h-37.001q-1.4641-3.7267-3.5936-11.047-0.93168-3.3274-1.331-4.3922-9.583 9.3168-20.497 13.975-10.914 4.6584-23.292 4.6584-21.828 0-34.472-11.846-12.511-11.846-12.511-29.947 0-11.979 5.7232-21.295 5.7232-9.4499 15.972-14.374 10.382-5.0577 29.814-8.7844 26.22-4.9246 36.335-9.1837v-3.7267q0-10.781-5.3239-15.306-5.3239-4.6584-20.098-4.6584-9.9822 0-15.572 3.9929-5.5901 3.8598-9.0506 13.709zm50.044 30.346q-7.1872 2.3957-22.76 5.7232t-20.364 6.5217q-7.3203 5.1908-7.3203 13.177 0 7.8527 5.8563 13.576 5.8562 5.7232 14.907 5.7232 10.115 0 19.299-6.6548 6.7879-5.0577 8.9175-12.378 1.4641-4.7915 1.4641-18.234z"/><path id="path1335" d="m477.7 163.7h39.796l33.807 100.35 33.008-100.35h38.731l-49.911 136.02-8.9175 24.623q-4.9246 12.378-9.4499 18.9-4.3922 6.5217-10.248 10.515-5.7232 4.126-14.241 6.3886-8.3851 2.2626-19.033 2.2626-10.781 0-21.162-2.2626l-3.3274-29.281q8.7844 1.7302 15.839 1.7302 13.043 0 19.299-7.7196 6.2555-7.5865 9.583-19.432z"/></g></g>
</g></g>
</g>















</svg>
