<?xml version="1.0" encoding="UTF-8"?>
<!-- Generator: Adobe Illustrator 16.0.0, SVG Export Plug-In . SVG Version: 6.00 Build 0)  -->
<svg id="Capa_1" width="151" height="125" version="1.1" viewBox="0 0 151 125" xml:space="preserve" xmlns="http://www.w3.org/2000/svg">
<g id="g12" transform="translate(-183.17 -298.62)">
	<g id="g10">
		
		
		
		
	<g id="g524" transform="translate(15.5)"><g id="g1592" transform="matrix(2.6087 0 0 2.084 164.94 298.62)" stroke-width=".42889">
	<path id="path6184" d="m51.991 7.982c-14.628 0-21.169-7.566-21.232-7.64-0.38-0.456-1.156-0.456-1.536 0-0.064 0.076-6.537 7.64-21.232 7.64-0.552 0-1 0.448-1 1v19.085c0 10.433 4.69 20.348 12.546 26.521 3.167 2.489 6.588 4.29 10.169 5.352 0.093 0.028 0.189 0.042 0.285 0.042s0.191-0.014 0.285-0.042c3.581-1.063 7.002-2.863 10.169-5.352 7.856-6.174 12.546-16.088 12.546-26.521v-19.085c0-0.552-0.447-1-1-1z" fill="#fff"/><path id="path1588" d="m51.991 7.982c-14.628 0-21.169-7.566-21.232-7.64-0.38-0.456-1.156-0.456-1.536 0-0.064 0.076-6.537 7.64-21.232 7.64-0.552 0-1 0.448-1 1v19.085c0 10.433 4.69 20.348 12.546 26.521 3.167 2.489 6.588 4.29 10.169 5.352 0.093 0.028 0.189 0.042 0.285 0.042s0.191-0.014 0.285-0.042c3.581-1.063 7.002-2.863 10.169-5.352 7.856-6.174 12.546-16.088 12.546-26.521v-19.085c0-0.552-0.447-1-1-1zm-1 20.085c0 9.824-4.404 19.151-11.782 24.949-2.883 2.266-5.983 3.92-9.218 4.921v-55.511c2.135 2.049 8.758 7.273 21 7.545z"/>
	
</g></g></g>
</g>















</svg>
