<?xml version="1.0" encoding="UTF-8"?>
<!-- Generator: Adobe Illustrator 16.0.0, SVG Export Plug-In . SVG Version: 6.00 Build 0)  -->
<svg id="Capa_1" width="550" height="550" version="1.1" viewBox="0 0 550 550" xml:space="preserve" xmlns="http://www.w3.org/2000/svg">
<g id="g12" transform="translate(-.00044347 -42.582)">
	<g id="g10">
		
		
		
		
	<g id="g332" transform="translate(-99.672 161.51)"><path id="path1046-3" d="m177.65-3.1691c2.691 10.546 12.167 17.909 23.057 17.909 1.922 0 3.845-0.236 5.723-0.701l39.417-9.79c4.466-1.072 5.626 2.404 5.626 4.396v249.94c0 13.049 10.63 23.676 23.686 23.676h262.87c13.063 0 23.699-10.627 23.699-23.676v-249.88c0-1.729 0.497-4.626 3.892-4.626 0.528 0 1.13 0.079999 1.719 0.23l39.237 9.74c1.871 0.465 3.803 0.702 5.727 0.702 10.892 0 20.369-7.364 23.051-17.909l13.577-53.215c1.566-6.141 0.64501-12.509-2.605-17.941-3.241-5.422-8.411-9.253-14.559-10.778l-124.46-30.9c-7.489-1.905-15.212-2.879-22.998-2.879l-30.453-0.05-1.454 6.015c-5.154 21.454-24.149 36.434-46.196 36.434-22.051 0-41.05-14.979-46.198-36.434l-1.453-6.015h-28.569l-1.403 0.058c-7.72 0-15.437 0.974-22.876 2.863l-124.46 30.907c-6.155 1.525-11.319 5.356-14.569 10.778-3.242 5.424-4.17 11.8-2.599 17.941z" fill="#034694" stroke-width="4.2591"/><path id="path2-6" d="m177.65-3.1691c2.691 10.546 12.167 17.909 23.057 17.909 1.922 0 3.845-0.236 5.723-0.701l39.417-9.79c4.466-1.072 5.626 2.404 5.626 4.396v249.94c0 13.049 10.63 23.676 23.686 23.676h262.87c13.063 0 23.699-10.627 23.699-23.676v-249.88c0-1.729 0.497-4.626 3.892-4.626 0.528 0 1.13 0.079999 1.719 0.23l39.237 9.74c1.871 0.465 3.803 0.702 5.727 0.702 10.892 0 20.369-7.364 23.051-17.909l13.577-53.215c1.566-6.141 0.64501-12.509-2.605-17.941-3.241-5.422-8.411-9.253-14.559-10.778l-124.46-30.9c-7.489-1.905-15.212-2.879-22.998-2.879l-30.453-0.05-1.454 6.015c-5.154 21.454-24.149 36.434-46.196 36.434-22.051 0-41.05-14.979-46.198-36.434l-1.453-6.015h-28.569l-1.403 0.058c-7.72 0-15.437 0.974-22.876 2.863l-124.46 30.907c-6.155 1.525-11.319 5.356-14.569 10.778-3.242 5.424-4.17 11.8-2.599 17.941zm2.496-63.085c1.084-1.813 2.81-3.094 4.875-3.597l41.755-10.369 8.023 31.575 49.46-12.569-7.955-31.298 33.254-8.259c6.224-1.585 12.621-2.393 19.46-2.393l17.499-0.058c8.756 25.281 32.486 42.449 59.703 42.449 27.221 0 50.948-17.168 59.692-42.449l18.486 0.058c6.384 0 12.815 0.80799 19.087 2.406l124.5 30.907c2.056 0.511 3.779 1.792 4.861 3.597 1.09 1.806 1.395 3.932 0.86501 5.999l-13.577 53.215c-1.074 4.218-5.534 6.927-9.773 5.851l-39.229-9.74c-1.839-0.457-3.694-0.683-5.506-0.683-11.177 0-19.593 8.736-19.593 20.323v249.89c0 4.399-3.59 7.975-7.99 7.975h-262.89c-4.404 0-7.985-3.575-7.985-7.975v-249.95c0-11.588-8.43-20.324-19.61-20.324-1.805 0-3.665 0.226-5.5 0.683l-39.417 9.79c-4.32 1.07-8.708-1.633-9.79-5.851l-13.573-53.215c-0.526-2.058-0.22399-4.184 0.86199-5.99z" stroke-width="4.2591"/><g id="text1286" transform="matrix(.23479 0 0 .23479 342.71 -13.782)" fill="#fff" stroke-width="18.14" aria-label="Away"><path id="path1329" d="m116.07 305.05h-42.857l-17.036-44.321h-77.995l-16.105 44.321h-41.792l75.998-195.12h41.659zm-72.538-77.196-26.886-72.405-26.353 72.405z"/><path id="path1331" d="m158.13 305.05-44.72-141.35h36.335l26.486 92.635 24.357-92.635h36.069l23.558 92.635 27.019-92.635h36.868l-45.386 141.35h-35.936l-24.357-90.905-23.957 90.905z"/><path id="path1333" d="m371.75 206.82-33.94-6.1224q5.7232-20.497 19.698-30.346t41.526-9.8492q25.022 0 37.267 5.9894 12.245 5.8562 17.169 15.04 5.0577 9.0506 5.0577 33.407l-0.39929 43.656q0 18.634 1.7302 27.551 1.8634 8.7844 6.7879 18.9h-37.001q-1.4641-3.7267-3.5936-11.047-0.93168-3.3274-1.331-4.3922-9.583 9.3168-20.497 13.975-10.914 4.6584-23.292 4.6584-21.828 0-34.472-11.846-12.511-11.846-12.511-29.947 0-11.979 5.7232-21.295 5.7232-9.4499 15.972-14.374 10.382-5.0577 29.814-8.7844 26.22-4.9246 36.335-9.1837v-3.7267q0-10.781-5.3239-15.306-5.3239-4.6584-20.098-4.6584-9.9822 0-15.572 3.9929-5.5901 3.8598-9.0506 13.709zm50.044 30.346q-7.1872 2.3957-22.76 5.7232t-20.364 6.5217q-7.3203 5.1908-7.3203 13.177 0 7.8527 5.8563 13.576 5.8562 5.7232 14.907 5.7232 10.115 0 19.299-6.6548 6.7879-5.0577 8.9175-12.378 1.4641-4.7915 1.4641-18.234z"/><path id="path1335" d="m477.7 163.7h39.796l33.807 100.35 33.008-100.35h38.731l-49.911 136.02-8.9175 24.623q-4.9246 12.378-9.4499 18.9-4.3922 6.5217-10.248 10.515-5.7232 4.126-14.241 6.3886-8.3851 2.2626-19.033 2.2626-10.781 0-21.162-2.2626l-3.3274-29.281q8.7844 1.7302 15.839 1.7302 13.043 0 19.299-7.7196 6.2555-7.5865 9.583-19.432z"/></g></g><g id="g271" transform="translate(0 148.82)"><path id="path1046" d="m14.32 158.34c2.691 10.546 12.167 17.909 23.057 17.909 1.922 0 3.845-0.236 5.723-0.701l39.417-9.79c4.466-1.072 5.626 2.404 5.626 4.396v249.94c0 13.049 10.63 23.676 23.686 23.676h262.87c13.063 0 23.699-10.627 23.699-23.676v-249.88c0-1.729 0.497-4.626 3.892-4.626 0.528 0 1.13 0.08 1.719 0.23l39.237 9.74c1.871 0.465 3.803 0.702 5.727 0.702 10.892 0 20.369-7.364 23.051-17.909l13.577-53.215c1.566-6.141 0.645-12.509-2.605-17.941-3.241-5.422-8.411-9.253-14.559-10.778l-124.46-30.9c-7.489-1.905-15.212-2.879-22.998-2.879l-30.453-0.05-1.454 6.015c-5.154 21.454-24.149 36.434-46.196 36.434-22.051 0-41.05-14.979-46.198-36.434l-1.453-6.015h-28.569l-1.403 0.058c-7.72 0-15.437 0.974-22.876 2.863l-124.46 30.907c-6.155 1.525-11.319 5.356-14.569 10.778-3.242 5.424-4.17 11.8-2.599 17.941z" fill="#da291c"/><path id="path2" d="m14.32 158.34c2.691 10.546 12.167 17.909 23.057 17.909 1.922 0 3.845-0.236 5.723-0.701l39.417-9.79c4.466-1.072 5.626 2.404 5.626 4.396v249.94c0 13.049 10.63 23.676 23.686 23.676h262.87c13.063 0 23.699-10.627 23.699-23.676v-249.88c0-1.729 0.497-4.626 3.892-4.626 0.528 0 1.13 0.08 1.719 0.23l39.237 9.74c1.871 0.465 3.803 0.702 5.727 0.702 10.892 0 20.369-7.364 23.051-17.909l13.577-53.215c1.566-6.141 0.645-12.509-2.605-17.941-3.241-5.422-8.411-9.253-14.559-10.778l-124.46-30.9c-7.489-1.905-15.212-2.879-22.998-2.879l-30.453-0.05-1.454 6.015c-5.154 21.454-24.149 36.434-46.196 36.434-22.051 0-41.05-14.979-46.198-36.434l-1.453-6.015h-28.569l-1.403 0.058c-7.72 0-15.437 0.974-22.876 2.863l-124.46 30.907c-6.155 1.525-11.319 5.356-14.569 10.778-3.242 5.424-4.17 11.8-2.599 17.941zm2.496-63.085c1.084-1.813 2.81-3.094 4.875-3.597l41.755-10.369 8.023 31.575 49.46-12.569-7.955-31.298 33.254-8.259c6.224-1.585 12.621-2.393 19.46-2.393l17.499-0.058c8.756 25.281 32.486 42.449 59.703 42.449 27.221 0 50.948-17.168 59.692-42.449l18.486 0.058c6.384 0 12.815 0.808 19.087 2.406l124.5 30.907c2.056 0.511 3.779 1.792 4.861 3.597 1.09 1.806 1.395 3.932 0.865 5.999l-13.577 53.215c-1.074 4.218-5.534 6.927-9.773 5.851l-39.229-9.74c-1.839-0.457-3.694-0.683-5.506-0.683-11.177 0-19.593 8.736-19.593 20.323v249.89c0 4.399-3.59 7.975-7.99 7.975h-262.89c-4.404 0-7.985-3.575-7.985-7.975v-249.95c0-11.588-8.43-20.324-19.61-20.324-1.805 0-3.665 0.226-5.5 0.683l-39.417 9.79c-4.32 1.07-8.708-1.633-9.79-5.851l-13.573-53.215c-0.526-2.058-0.224-4.184 0.862-5.99z"/><g id="g449" transform="matrix(.2371 0 0 .23251 174.4 267.58)" fill="#fff"><g id="text431" transform="scale(.99027 1.0098)" stroke-width="18.14" aria-label="Home"><path id="path1382" d="m-70.325-178.34v-195.12h39.397v76.797h77.196v-76.797h39.397v195.12h-39.397v-85.315h-77.196v85.315z"/><path id="path1384" d="m117.47-251.02q0-18.634 9.1837-36.069 9.1837-17.436 25.954-26.619 16.903-9.1837 37.666-9.1837 32.076 0 52.573 20.896 20.497 20.763 20.497 52.573 0 32.076-20.763 53.239-20.63 21.029-52.041 21.029-19.432 0-37.134-8.7844-17.569-8.7844-26.752-25.688-9.1837-17.036-9.1837-41.393zm38.332 1.9964q0 21.029 9.9822 32.209t24.623 11.18q14.641 0 24.49-11.18 9.9822-11.18 9.9822-32.476 0-20.763-9.9822-31.943-9.8492-11.18-24.49-11.18-14.641 0-24.623 11.18t-9.9822 32.209z"/><path id="path1386" d="m289.84-319.69h34.472v19.299q18.5-22.493 44.055-22.493 13.576 0 23.558 5.5901t16.371 16.903q9.3168-11.313 20.098-16.903t23.026-5.5901q15.572 0 26.353 6.3886 10.781 6.2555 16.105 18.5 3.8598 9.0506 3.8598 29.281v90.373h-37.4v-80.79q0-21.029-3.8598-27.152-5.1908-7.9858-15.972-7.9858-7.8527 0-14.774 4.7915t-9.9822 14.108q-3.0612 9.1837-3.0612 29.148v67.879h-37.4v-77.462q0-20.63-1.9964-26.619t-6.2556-8.9175q-4.126-2.9281-11.313-2.9281-8.6513 0-15.572 4.6584-6.921 4.6584-9.9822 13.443-2.9281 8.7844-2.9281 29.148v68.678h-37.4z"/><path id="path1388" d="m616.85-223.33 37.267 6.2555q-7.1872 20.497-22.76 31.278-15.439 10.648-38.731 10.648-36.868 0-54.57-24.09-13.975-19.299-13.975-48.713 0-35.138 18.367-54.969 18.367-19.964 46.451-19.964 31.544 0 49.778 20.896 18.234 20.763 17.436 63.753h-93.7q0.39929 16.637 9.0506 25.954 8.6513 9.1837 21.562 9.1837 8.7844 0 14.774-4.7915t9.0506-15.439zm2.1295-37.799q-0.39929-16.238-8.3851-24.623-7.9858-8.5182-19.432-8.5182-12.245 0-20.231 8.9175-7.9858 8.9175-7.8527 24.224z"/></g>
	
</g><g id="text388" fill="#fff" aria-label="11"><path id="path440" d="m217.22 356.47h-19.328v-52.864q0-3.328 0.128-8.704 0.256-5.376 0.384-9.472-0.64 0.768-2.816 2.816-2.048 1.92-3.84 3.456l-10.496 8.448-9.344-11.648 29.44-23.424h15.872z"/><path id="path442" d="m290.44 356.47h-19.328v-52.864q0-3.328 0.128-8.704 0.256-5.376 0.384-9.472-0.64 0.768-2.816 2.816-2.048 1.92-3.84 3.456l-10.496 8.448-9.344-11.648 29.44-23.424h15.872z"/></g></g></g>
</g>















</svg>
