<?xml version="1.0" encoding="UTF-8"?>
<!-- Generator: Adobe Illustrator 16.0.0, SVG Export Plug-In . SVG Version: 6.00 Build 0)  -->
<svg id="Capa_1" width="486.35" height="401.18" version="1.1" viewBox="0 0 486.35 401.18" xml:space="preserve" xmlns="http://www.w3.org/2000/svg">
<g id="g12" transform="translate(-.00044347 -42.582)">
	<g id="g10">
		<path id="path1046" d="m14.32 158.34c2.691 10.546 12.167 17.909 23.057 17.909 1.922 0 3.845-0.236 5.723-0.701l39.417-9.79c4.466-1.072 5.626 2.404 5.626 4.396v249.94c0 13.049 10.63 23.676 23.686 23.676h262.87c13.063 0 23.699-10.627 23.699-23.676v-249.88c0-1.729 0.497-4.626 3.892-4.626 0.528 0 1.13 0.08 1.719 0.23l39.237 9.74c1.871 0.465 3.803 0.702 5.727 0.702 10.892 0 20.369-7.364 23.051-17.909l13.577-53.215c1.566-6.141 0.645-12.509-2.605-17.941-3.241-5.422-8.411-9.253-14.559-10.778l-124.46-30.9c-7.489-1.905-15.212-2.879-22.998-2.879l-30.453-0.05-1.454 6.015c-5.154 21.454-24.149 36.434-46.196 36.434-22.051 0-41.05-14.979-46.198-36.434l-1.453-6.015h-28.569l-1.403 0.058c-7.72 0-15.437 0.974-22.876 2.863l-124.46 30.907c-6.155 1.525-11.319 5.356-14.569 10.778-3.242 5.424-4.17 11.8-2.599 17.941z" fill="#da291c"/><path id="path2" d="m14.32 158.34c2.691 10.546 12.167 17.909 23.057 17.909 1.922 0 3.845-0.236 5.723-0.701l39.417-9.79c4.466-1.072 5.626 2.404 5.626 4.396v249.94c0 13.049 10.63 23.676 23.686 23.676h262.87c13.063 0 23.699-10.627 23.699-23.676v-249.88c0-1.729 0.497-4.626 3.892-4.626 0.528 0 1.13 0.08 1.719 0.23l39.237 9.74c1.871 0.465 3.803 0.702 5.727 0.702 10.892 0 20.369-7.364 23.051-17.909l13.577-53.215c1.566-6.141 0.645-12.509-2.605-17.941-3.241-5.422-8.411-9.253-14.559-10.778l-124.46-30.9c-7.489-1.905-15.212-2.879-22.998-2.879l-30.453-0.05-1.454 6.015c-5.154 21.454-24.149 36.434-46.196 36.434-22.051 0-41.05-14.979-46.198-36.434l-1.453-6.015h-28.569l-1.403 0.058c-7.72 0-15.437 0.974-22.876 2.863l-124.46 30.907c-6.155 1.525-11.319 5.356-14.569 10.778-3.242 5.424-4.17 11.8-2.599 17.941zm2.496-63.085c1.084-1.813 2.81-3.094 4.875-3.597l41.755-10.369 8.023 31.575 49.46-12.569-7.955-31.298 33.254-8.259c6.224-1.585 12.621-2.393 19.46-2.393l17.499-0.058c8.756 25.281 32.486 42.449 59.703 42.449 27.221 0 50.948-17.168 59.692-42.449l18.486 0.058c6.384 0 12.815 0.808 19.087 2.406l124.5 30.907c2.056 0.511 3.779 1.792 4.861 3.597 1.09 1.806 1.395 3.932 0.865 5.999l-13.577 53.215c-1.074 4.218-5.534 6.927-9.773 5.851l-39.229-9.74c-1.839-0.457-3.694-0.683-5.506-0.683-11.177 0-19.593 8.736-19.593 20.323v249.89c0 4.399-3.59 7.975-7.99 7.975h-262.89c-4.404 0-7.985-3.575-7.985-7.975v-249.95c0-11.588-8.43-20.324-19.61-20.324-1.805 0-3.665 0.226-5.5 0.683l-39.417 9.79c-4.32 1.07-8.708-1.633-9.79-5.851l-13.573-53.215c-0.526-2.058-0.224-4.184 0.862-5.99z"/>
		
		
		
	<g id="g1044" transform="matrix(-.18625 .18625 .18625 .18625 168.75 277.65)" stroke-width="3.7966">
	<g id="g1042" stroke-width="3.7966">
		<g id="g1040" stroke-width="3.7966">
			<path id="path1028" d="m167.11 294.07c0-21.333-17.067-38.4-38.4-38.4-7.68 0-15.36 2.56-21.333 6.827v-62.293c0-21.333-17.067-38.4-38.4-38.4-9.387 0-17.067 3.413-23.893 8.533-5.121-15.36-19.627-25.6-35.841-25.6-21.333 0-38.4 17.067-38.4 38.4v2.56c-5.973-4.267-13.653-6.827-21.333-6.827-21.333 0-38.4 17.067-38.4 38.4v151.04c-7.68-16.213-17.92-31.573-28.16-41.813-13.653-13.653-40.96-14.507-56.32-1.707-4.267 4.267-18.773 19.627 0.853 46.933 17.92 25.6 32.427 81.92 32.427 114.35 0 68.385 44.328 99.121 59.733 107.58v37.49c0 14.507 11.093 25.6 25.6 25.6h170.67c14.507 0 25.6-11.093 25.6-25.6v-39.558c25.596-34.759 25.6-38.832 25.6-105.51z" fill="#fff" stroke-width="3.7966"/>
			
			
			
			
			
		</g>
	</g>
</g><g id="g1308" transform="matrix(-.18625 .18625 .18625 .18625 245.01 255.68)" stroke-width="3.7966">
	<g id="g1306" stroke-width="3.7966">
		<g id="g1304" stroke-width="3.7966">
			<path id="path1292" d="m430.82 148.33c0-21.333-17.067-38.4-38.4-38.4-7.68 0-15.36 2.56-21.333 6.827v-62.293c0-21.333-17.067-38.4-38.4-38.4-9.387 0-17.067 3.413-23.893 8.533-5.121-15.36-19.627-25.6-35.841-25.6-21.333 0-38.4 17.067-38.4 38.4v2.56c-5.973-4.267-13.653-6.827-21.333-6.827-21.333 0-38.4 17.067-38.4 38.4v151.04c-7.68-16.213-17.92-31.573-28.16-41.813-13.653-13.653-40.96-14.507-56.32-1.707-4.267 4.267-18.773 19.627 0.853 46.933 17.92 25.6 32.427 81.92 32.427 114.35 0 68.385 44.328 99.121 59.733 107.58v37.49c0 14.507 11.093 25.6 25.6 25.6h170.67c14.507 0 25.6-11.093 25.6-25.6v-39.558c25.596-34.759 25.6-38.832 25.6-105.51zm-42.667 337.07c0 5.12-3.413 8.533-8.533 8.533h-170.67c-5.12 0-8.533-3.413-8.533-8.533v-34.133h187.73zm25.6-145.07c0 63.147 0 64.853-21.333 93.867h-198.83c-8.533-4.267-52.907-29.867-52.907-93.867 0-31.573-13.653-93.867-35.84-124.59-5.973-7.68-11.093-17.92-3.413-23.893 8.533-6.827 25.6-6.827 33.28 0.853 21.333 21.333 40.107 66.56 40.107 87.893 0 5.12 3.413 8.533 8.533 8.533s8.533-3.413 8.533-8.533v-209.07c0-11.947 9.387-21.333 21.333-21.333s21.333 9.387 21.333 21.333v157.87c0 5.12 3.413 8.533 8.533 8.533s8.533-3.413 8.533-8.533v-192c0-11.947 9.387-21.333 21.333-21.333s21.333 9.387 21.333 21.333v200.53c0 5.12 3.413 8.533 8.533 8.533s8.533-3.413 8.533-8.533v-184.32c0-11.093 9.387-20.48 21.333-20.48s21.333 9.387 21.333 21.333v200.53c0 5.12 3.413 8.533 8.533 8.533s8.533-3.413 8.533-8.533v-107.52c0.853-11.093 10.24-20.48 21.333-20.48 11.947 0 21.333 9.387 21.333 21.333v192z"/>
			<path id="path1294" d="m226.02 485.4c5.12 0 8.533-3.413 8.533-8.533v-8.533c0-5.12-3.413-8.533-8.533-8.533s-8.533 3.413-8.533 8.533v8.533c0 5.12 3.413 8.533 8.533 8.533z"/>
			<path id="path1296" d="m260.16 485.4c5.12 0 8.533-3.413 8.533-8.533v-8.533c0-5.12-3.413-8.533-8.533-8.533s-8.533 3.413-8.533 8.533v8.533c0 5.12 3.413 8.533 8.533 8.533z"/>
			<path id="path1298" d="m294.29 485.4c5.12 0 8.533-3.413 8.533-8.533v-8.533c0-5.12-3.413-8.533-8.533-8.533s-8.533 3.413-8.533 8.533v8.533c-1e-3 5.12 3.413 8.533 8.533 8.533z"/>
			<path id="path1300" d="m328.42 485.4c5.12 0 8.533-3.413 8.533-8.533v-8.533c0-5.12-3.413-8.533-8.533-8.533s-8.533 3.413-8.533 8.533v8.533c0 5.12 3.413 8.533 8.533 8.533z"/>
			<path id="path1302" d="m362.56 485.4c5.12 0 8.533-3.413 8.533-8.533v-8.533c0-5.12-3.413-8.533-8.533-8.533s-8.533 3.413-8.533 8.533v8.533c0 5.12 3.413 8.533 8.533 8.533z"/>
		</g>
	</g>
</g></g>
</g>















</svg>
