<?xml version="1.0" encoding="UTF-8"?>
<!-- Generator: Adobe Illustrator 16.0.0, SVG Export Plug-In . SVG Version: 6.00 Build 0)  -->
<svg id="Capa_1" width="486.35" height="401.18" version="1.1" viewBox="0 0 486.35 401.18" xml:space="preserve" xmlns="http://www.w3.org/2000/svg">
<g id="g12" transform="translate(-.00044347 -42.582)">
	<g id="g10">
		<path id="path1046" d="m14.32 158.34c2.691 10.546 12.167 17.909 23.057 17.909 1.922 0 3.845-0.236 5.723-0.701l39.417-9.79c4.466-1.072 5.626 2.404 5.626 4.396v249.94c0 13.049 10.63 23.676 23.686 23.676h262.87c13.063 0 23.699-10.627 23.699-23.676v-249.88c0-1.729 0.497-4.626 3.892-4.626 0.528 0 1.13 0.08 1.719 0.23l39.237 9.74c1.871 0.465 3.803 0.702 5.727 0.702 10.892 0 20.369-7.364 23.051-17.909l13.577-53.215c1.566-6.141 0.645-12.509-2.605-17.941-3.241-5.422-8.411-9.253-14.559-10.778l-124.46-30.9c-7.489-1.905-15.212-2.879-22.998-2.879l-30.453-0.05-1.454 6.015c-5.154 21.454-24.149 36.434-46.196 36.434-22.051 0-41.05-14.979-46.198-36.434l-1.453-6.015h-28.569l-1.403 0.058c-7.72 0-15.437 0.974-22.876 2.863l-124.46 30.907c-6.155 1.525-11.319 5.356-14.569 10.778-3.242 5.424-4.17 11.8-2.599 17.941z" fill="#da291c"/><path id="path2" d="m14.32 158.34c2.691 10.546 12.167 17.909 23.057 17.909 1.922 0 3.845-0.236 5.723-0.701l39.417-9.79c4.466-1.072 5.626 2.404 5.626 4.396v249.94c0 13.049 10.63 23.676 23.686 23.676h262.87c13.063 0 23.699-10.627 23.699-23.676v-249.88c0-1.729 0.497-4.626 3.892-4.626 0.528 0 1.13 0.08 1.719 0.23l39.237 9.74c1.871 0.465 3.803 0.702 5.727 0.702 10.892 0 20.369-7.364 23.051-17.909l13.577-53.215c1.566-6.141 0.645-12.509-2.605-17.941-3.241-5.422-8.411-9.253-14.559-10.778l-124.46-30.9c-7.489-1.905-15.212-2.879-22.998-2.879l-30.453-0.05-1.454 6.015c-5.154 21.454-24.149 36.434-46.196 36.434-22.051 0-41.05-14.979-46.198-36.434l-1.453-6.015h-28.569l-1.403 0.058c-7.72 0-15.437 0.974-22.876 2.863l-124.46 30.907c-6.155 1.525-11.319 5.356-14.569 10.778-3.242 5.424-4.17 11.8-2.599 17.941zm2.496-63.085c1.084-1.813 2.81-3.094 4.875-3.597l41.755-10.369 8.023 31.575 49.46-12.569-7.955-31.298 33.254-8.259c6.224-1.585 12.621-2.393 19.46-2.393l17.499-0.058c8.756 25.281 32.486 42.449 59.703 42.449 27.221 0 50.948-17.168 59.692-42.449l18.486 0.058c6.384 0 12.815 0.808 19.087 2.406l124.5 30.907c2.056 0.511 3.779 1.792 4.861 3.597 1.09 1.806 1.395 3.932 0.865 5.999l-13.577 53.215c-1.074 4.218-5.534 6.927-9.773 5.851l-39.229-9.74c-1.839-0.457-3.694-0.683-5.506-0.683-11.177 0-19.593 8.736-19.593 20.323v249.89c0 4.399-3.59 7.975-7.99 7.975h-262.89c-4.404 0-7.985-3.575-7.985-7.975v-249.95c0-11.588-8.43-20.324-19.61-20.324-1.805 0-3.665 0.226-5.5 0.683l-39.417 9.79c-4.32 1.07-8.708-1.633-9.79-5.851l-13.573-53.215c-0.526-2.058-0.224-4.184 0.862-5.99z"/>
		
		
		
	<g id="g1592" transform="matrix(2.6087 0 0 2.084 164.94 298.62)" stroke-width=".42889">
	<path id="path6184" d="m51.991 7.982c-14.628 0-21.169-7.566-21.232-7.64-0.38-0.456-1.156-0.456-1.536 0-0.064 0.076-6.537 7.64-21.232 7.64-0.552 0-1 0.448-1 1v19.085c0 10.433 4.69 20.348 12.546 26.521 3.167 2.489 6.588 4.29 10.169 5.352 0.093 0.028 0.189 0.042 0.285 0.042s0.191-0.014 0.285-0.042c3.581-1.063 7.002-2.863 10.169-5.352 7.856-6.174 12.546-16.088 12.546-26.521v-19.085c0-0.552-0.447-1-1-1z" fill="#fff"/><path id="path1588" d="m51.991 7.982c-14.628 0-21.169-7.566-21.232-7.64-0.38-0.456-1.156-0.456-1.536 0-0.064 0.076-6.537 7.64-21.232 7.64-0.552 0-1 0.448-1 1v19.085c0 10.433 4.69 20.348 12.546 26.521 3.167 2.489 6.588 4.29 10.169 5.352 0.093 0.028 0.189 0.042 0.285 0.042s0.191-0.014 0.285-0.042c3.581-1.063 7.002-2.863 10.169-5.352 7.856-6.174 12.546-16.088 12.546-26.521v-19.085c0-0.552-0.447-1-1-1zm-1 20.085c0 9.824-4.404 19.151-11.782 24.949-2.883 2.266-5.983 3.92-9.218 4.921v-55.511c2.135 2.049 8.758 7.273 21 7.545z"/>
	
</g></g>
</g>















</svg>
