<?xml version="1.0" encoding="UTF-8"?>
<!-- Generator: Adobe Illustrator 16.0.0, SVG Export Plug-In . SVG Version: 6.00 Build 0)  -->
<svg id="Capa_1" width="486.35" height="401.18" version="1.1" viewBox="0 0 486.35 401.18" xml:space="preserve" xmlns="http://www.w3.org/2000/svg">
<g id="g12" transform="translate(-.00044347 -42.582)">
	<g id="g10">
		<path id="path1046" d="m14.32 158.34c2.691 10.546 12.167 17.909 23.057 17.909 1.922 0 3.845-0.236 5.723-0.701l39.417-9.79c4.466-1.072 5.626 2.404 5.626 4.396v249.94c0 13.049 10.63 23.676 23.686 23.676h262.87c13.063 0 23.699-10.627 23.699-23.676v-249.88c0-1.729 0.497-4.626 3.892-4.626 0.528 0 1.13 0.08 1.719 0.23l39.237 9.74c1.871 0.465 3.803 0.702 5.727 0.702 10.892 0 20.369-7.364 23.051-17.909l13.577-53.215c1.566-6.141 0.645-12.509-2.605-17.941-3.241-5.422-8.411-9.253-14.559-10.778l-124.46-30.9c-7.489-1.905-15.212-2.879-22.998-2.879l-30.453-0.05-1.454 6.015c-5.154 21.454-24.149 36.434-46.196 36.434-22.051 0-41.05-14.979-46.198-36.434l-1.453-6.015h-28.569l-1.403 0.058c-7.72 0-15.437 0.974-22.876 2.863l-124.46 30.907c-6.155 1.525-11.319 5.356-14.569 10.778-3.242 5.424-4.17 11.8-2.599 17.941z" fill="#da291c"/><path id="path2" d="m14.32 158.34c2.691 10.546 12.167 17.909 23.057 17.909 1.922 0 3.845-0.236 5.723-0.701l39.417-9.79c4.466-1.072 5.626 2.404 5.626 4.396v249.94c0 13.049 10.63 23.676 23.686 23.676h262.87c13.063 0 23.699-10.627 23.699-23.676v-249.88c0-1.729 0.497-4.626 3.892-4.626 0.528 0 1.13 0.08 1.719 0.23l39.237 9.74c1.871 0.465 3.803 0.702 5.727 0.702 10.892 0 20.369-7.364 23.051-17.909l13.577-53.215c1.566-6.141 0.645-12.509-2.605-17.941-3.241-5.422-8.411-9.253-14.559-10.778l-124.46-30.9c-7.489-1.905-15.212-2.879-22.998-2.879l-30.453-0.05-1.454 6.015c-5.154 21.454-24.149 36.434-46.196 36.434-22.051 0-41.05-14.979-46.198-36.434l-1.453-6.015h-28.569l-1.403 0.058c-7.72 0-15.437 0.974-22.876 2.863l-124.46 30.907c-6.155 1.525-11.319 5.356-14.569 10.778-3.242 5.424-4.17 11.8-2.599 17.941zm2.496-63.085c1.084-1.813 2.81-3.094 4.875-3.597l41.755-10.369 8.023 31.575 49.46-12.569-7.955-31.298 33.254-8.259c6.224-1.585 12.621-2.393 19.46-2.393l17.499-0.058c8.756 25.281 32.486 42.449 59.703 42.449 27.221 0 50.948-17.168 59.692-42.449l18.486 0.058c6.384 0 12.815 0.808 19.087 2.406l124.5 30.907c2.056 0.511 3.779 1.792 4.861 3.597 1.09 1.806 1.395 3.932 0.865 5.999l-13.577 53.215c-1.074 4.218-5.534 6.927-9.773 5.851l-39.229-9.74c-1.839-0.457-3.694-0.683-5.506-0.683-11.177 0-19.593 8.736-19.593 20.323v249.89c0 4.399-3.59 7.975-7.99 7.975h-262.89c-4.404 0-7.985-3.575-7.985-7.975v-249.95c0-11.588-8.43-20.324-19.61-20.324-1.805 0-3.665 0.226-5.5 0.683l-39.417 9.79c-4.32 1.07-8.708-1.633-9.79-5.851l-13.573-53.215c-0.526-2.058-0.224-4.184 0.862-5.99z"/>
		
		
		
	<g id="g449" transform="matrix(.2371 0 0 .23251 179.39 298.62)" stroke-width="4.2591">
	<path id="path3801" d="m269.02 0c-148.33 0-269.02 120.68-269.02 269.02s120.69 269.02 269.02 269.02 269.02-120.68 269.02-269.02-120.69-269.02-269.02-269.02z" fill="#fff"/><path id="path447" d="m269.02 0c-148.33 0-269.02 120.68-269.02 269.02s120.69 269.02 269.02 269.02 269.02-120.68 269.02-269.02-120.69-269.02-269.02-269.02zm198.79 124.5h-11.502c-4.962 0-9.35 3.204-10.88 7.915l-24.654 75.876-64.482 28.337-75.828-55.084v-76.043l63.991-46.463c4.017-2.917 5.691-8.083 4.161-12.794l-3.647-11.227c49.834 16.214 92.59 47.97 122.84 89.483zm-274.72-89.494-3.647 11.227c-1.53 4.723 0.143 9.876 4.161 12.794l63.979 46.463v76.043l-75.828 55.084-64.494-28.349-24.666-75.876c-1.53-4.735-5.93-7.915-10.88-7.915h-11.479c30.25-41.49 73.019-73.246 122.85-89.471zm-170.18 233.82 9.637 7.007c2.009 1.447 4.364 2.2 6.731 2.2 2.355 0 4.723-0.741 6.731-2.2l63.369-46.045 64.482 28.349 29.257 89.997-38.99 46.427h-79.558c-4.962 0-9.35 3.204-10.88 7.915l-3.551 10.916c-29.568-40.592-47.24-90.403-47.24-144.38 0-0.071 0.012-0.131 0.012-0.191zm169.98 234.13 9.529-6.959c4.017-2.894 5.703-8.083 4.173-12.781l-24.284-74.692 38.99-46.403h95.437l38.954 46.403-24.272 74.704c-1.53 4.723 0.167 9.876 4.185 12.794l9.529 6.935c-23.985 7.808-49.536 12.196-76.103 12.196-26.59-2e-3 -52.141-4.366-76.138-12.197zm275-89.531-3.551-10.952c-1.542-4.723-5.942-7.903-10.892-7.903l-79.547 0.012-38.954-46.415 29.234-90.008 64.505-28.337 63.358 46.009c2.009 1.47 4.364 2.212 6.732 2.212 2.367 0 4.735-0.741 6.732-2.212l9.637-6.994c0 0.06 0.012 0.12 0.012 0.191-0.014 53.958-17.709 103.77-47.266 144.4z"/>
</g></g>
</g>















</svg>
