<?xml version="1.0" encoding="UTF-8"?>
<!-- Generator: Adobe Illustrator 16.0.0, SVG Export Plug-In . SVG Version: 6.00 Build 0)  -->
<svg id="Capa_1" width="486.35" height="401.18" version="1.1" viewBox="0 0 486.35 401.18" xml:space="preserve" xmlns="http://www.w3.org/2000/svg">
<g id="g12" transform="translate(-.00044347 -42.582)">
	<g id="g10">
		<path id="path1046" d="m14.32 158.34c2.691 10.546 12.167 17.909 23.057 17.909 1.922 0 3.845-0.236 5.723-0.701l39.417-9.79c4.466-1.072 5.626 2.404 5.626 4.396v249.94c0 13.049 10.63 23.676 23.686 23.676h262.87c13.063 0 23.699-10.627 23.699-23.676v-249.88c0-1.729 0.497-4.626 3.892-4.626 0.528 0 1.13 0.08 1.719 0.23l39.237 9.74c1.871 0.465 3.803 0.702 5.727 0.702 10.892 0 20.369-7.364 23.051-17.909l13.577-53.215c1.566-6.141 0.645-12.509-2.605-17.941-3.241-5.422-8.411-9.253-14.559-10.778l-124.46-30.9c-7.489-1.905-15.212-2.879-22.998-2.879l-30.453-0.05-1.454 6.015c-5.154 21.454-24.149 36.434-46.196 36.434-22.051 0-41.05-14.979-46.198-36.434l-1.453-6.015h-28.569l-1.403 0.058c-7.72 0-15.437 0.974-22.876 2.863l-124.46 30.907c-6.155 1.525-11.319 5.356-14.569 10.778-3.242 5.424-4.17 11.8-2.599 17.941z" fill="#da291c"/><path id="path2" d="m14.32 158.34c2.691 10.546 12.167 17.909 23.057 17.909 1.922 0 3.845-0.236 5.723-0.701l39.417-9.79c4.466-1.072 5.626 2.404 5.626 4.396v249.94c0 13.049 10.63 23.676 23.686 23.676h262.87c13.063 0 23.699-10.627 23.699-23.676v-249.88c0-1.729 0.497-4.626 3.892-4.626 0.528 0 1.13 0.08 1.719 0.23l39.237 9.74c1.871 0.465 3.803 0.702 5.727 0.702 10.892 0 20.369-7.364 23.051-17.909l13.577-53.215c1.566-6.141 0.645-12.509-2.605-17.941-3.241-5.422-8.411-9.253-14.559-10.778l-124.46-30.9c-7.489-1.905-15.212-2.879-22.998-2.879l-30.453-0.05-1.454 6.015c-5.154 21.454-24.149 36.434-46.196 36.434-22.051 0-41.05-14.979-46.198-36.434l-1.453-6.015h-28.569l-1.403 0.058c-7.72 0-15.437 0.974-22.876 2.863l-124.46 30.907c-6.155 1.525-11.319 5.356-14.569 10.778-3.242 5.424-4.17 11.8-2.599 17.941zm2.496-63.085c1.084-1.813 2.81-3.094 4.875-3.597l41.755-10.369 8.023 31.575 49.46-12.569-7.955-31.298 33.254-8.259c6.224-1.585 12.621-2.393 19.46-2.393l17.499-0.058c8.756 25.281 32.486 42.449 59.703 42.449 27.221 0 50.948-17.168 59.692-42.449l18.486 0.058c6.384 0 12.815 0.808 19.087 2.406l124.5 30.907c2.056 0.511 3.779 1.792 4.861 3.597 1.09 1.806 1.395 3.932 0.865 5.999l-13.577 53.215c-1.074 4.218-5.534 6.927-9.773 5.851l-39.229-9.74c-1.839-0.457-3.694-0.683-5.506-0.683-11.177 0-19.593 8.736-19.593 20.323v249.89c0 4.399-3.59 7.975-7.99 7.975h-262.89c-4.404 0-7.985-3.575-7.985-7.975v-249.95c0-11.588-8.43-20.324-19.61-20.324-1.805 0-3.665 0.226-5.5 0.683l-39.417 9.79c-4.32 1.07-8.708-1.633-9.79-5.851l-13.573-53.215c-0.526-2.058-0.224-4.184 0.862-5.99z"/>
		
		
		
	<g id="g449" transform="matrix(.2371 0 0 .23251 174.4 307.58)" fill="#fff"><g id="text431" transform="scale(.99027 1.0098)" stroke-width="18.14" aria-label="Home"><path id="path1382" d="m-70.325-178.34v-195.12h39.397v76.797h77.196v-76.797h39.397v195.12h-39.397v-85.315h-77.196v85.315z"/><path id="path1384" d="m117.47-251.02q0-18.634 9.1837-36.069 9.1837-17.436 25.954-26.619 16.903-9.1837 37.666-9.1837 32.076 0 52.573 20.896 20.497 20.763 20.497 52.573 0 32.076-20.763 53.239-20.63 21.029-52.041 21.029-19.432 0-37.134-8.7844-17.569-8.7844-26.752-25.688-9.1837-17.036-9.1837-41.393zm38.332 1.9964q0 21.029 9.9822 32.209t24.623 11.18q14.641 0 24.49-11.18 9.9822-11.18 9.9822-32.476 0-20.763-9.9822-31.943-9.8492-11.18-24.49-11.18-14.641 0-24.623 11.18t-9.9822 32.209z"/><path id="path1386" d="m289.84-319.69h34.472v19.299q18.5-22.493 44.055-22.493 13.576 0 23.558 5.5901t16.371 16.903q9.3168-11.313 20.098-16.903t23.026-5.5901q15.572 0 26.353 6.3886 10.781 6.2555 16.105 18.5 3.8598 9.0506 3.8598 29.281v90.373h-37.4v-80.79q0-21.029-3.8598-27.152-5.1908-7.9858-15.972-7.9858-7.8527 0-14.774 4.7915t-9.9822 14.108q-3.0612 9.1837-3.0612 29.148v67.879h-37.4v-77.462q0-20.63-1.9964-26.619t-6.2556-8.9175q-4.126-2.9281-11.313-2.9281-8.6513 0-15.572 4.6584-6.921 4.6584-9.9822 13.443-2.9281 8.7844-2.9281 29.148v68.678h-37.4z"/><path id="path1388" d="m616.85-223.33 37.267 6.2555q-7.1872 20.497-22.76 31.278-15.439 10.648-38.731 10.648-36.868 0-54.57-24.09-13.975-19.299-13.975-48.713 0-35.138 18.367-54.969 18.367-19.964 46.451-19.964 31.544 0 49.778 20.896 18.234 20.763 17.436 63.753h-93.7q0.39929 16.637 9.0506 25.954 8.6513 9.1837 21.562 9.1837 8.7844 0 14.774-4.7915t9.0506-15.439zm2.1295-37.799q-0.39929-16.238-8.3851-24.623-7.9858-8.5182-19.432-8.5182-12.245 0-20.231 8.9175-7.9858 8.9175-7.8527 24.224z"/></g>
	
</g></g>
</g>















</svg>
